<svg xmlns="http://www.w3.org/2000/svg" viewBox="0 0 512 512">
  <rect width="512" height="512" rx="96" fill="#0f172a"/>
  <g transform="translate(56,80)">
    <!-- 캔들스틱 차트 -->
    <rect x="40" y="120" width="24" height="160" rx="4" fill="#ef4444"/>
    <rect x="50" y="80" width="4" height="220" fill="#ef4444"/>
    <rect x="120" y="180" width="24" height="100" rx="4" fill="#3b82f6"/>
    <rect x="130" y="160" width="4" height="160" fill="#3b82f6"/>
    <rect x="200" y="100" width="24" height="140" rx="4" fill="#ef4444"/>
    <rect x="210" y="60" width="4" height="220" fill="#ef4444"/>
    <rect x="280" y="160" width="24" height="120" rx="4" fill="#3b82f6"/>
    <rect x="290" y="140" width="4" height="180" fill="#3b82f6"/>
    <rect x="360" y="80" width="24" height="180" rx="4" fill="#ef4444"/>
    <rect x="370" y="40" width="4" height="260" fill="#ef4444"/>
    <!-- 이동평균선 -->
    <polyline points="52,200 132,230 212,170 292,220 372,160" fill="none" stroke="#fbbf24" stroke-width="6" stroke-linecap="round" stroke-linejoin="round"/>
  </g>
  <text x="256" y="440" text-anchor="middle" fill="#94a3b8" font-family="sans-serif" font-size="48" font-weight="700">STOCK</text>
</svg>
